<?xml version="1.0" standalone="no"?>
<!DOCTYPE svg PUBLIC "-//W3C//DTD SVG 20010904//EN"
 "http://www.w3.org/TR/2001/REC-SVG-20010904/DTD/svg10.dtd">
<svg version="1.0" xmlns="http://www.w3.org/2000/svg"
 width="513.000000pt" height="513.000000pt" viewBox="0 0 513.000000 513.000000"
 preserveAspectRatio="xMidYMid meet">
<metadata>
Created by potrace 1.11, written by Peter Selinger 2001-2013
</metadata>
<g transform="translate(0.000000,513.000000) scale(0.100000,-0.100000)"
fill="#000000" stroke="none">
<path d="M2345 4431 c-4 -7 -14 -11 -23 -10 -10 1 -19 0 -22 -1 -13 -5 -121
-21 -142 -21 -10 0 -18 -3 -18 -7 0 -4 -12 -9 -26 -10 -14 -1 -32 -9 -40 -17
-9 -8 -26 -18 -40 -21 -13 -3 -24 -10 -24 -15 0 -5 -6 -9 -13 -9 -7 0 -22 -8
-33 -17 -11 -10 -35 -27 -54 -37 -50 -28 -116 -82 -181 -148 -54 -53 -124
-143 -124 -157 0 -3 -11 -21 -23 -39 -13 -18 -25 -38 -26 -45 -3 -14 -14 -43
-28 -77 -6 -14 -12 -36 -14 -49 -2 -13 -8 -46 -14 -73 -5 -27 -8 -53 -6 -57 3
-4 -1 -19 -9 -34 -8 -15 -10 -27 -5 -27 6 0 5 -12 -1 -27 -10 -27 -35 -137
-45 -201 -3 -18 -7 -96 -9 -175 -2 -78 -3 -145 -4 -149 -1 -4 -20 -8 -43 -10
-57 -4 -81 -38 -80 -112 0 -30 5 -70 11 -88 6 -18 13 -46 15 -63 11 -63 33
-160 36 -160 3 0 11 -41 15 -80 5 -37 7 -50 21 -115 3 -14 6 -35 8 -47 6 -41
29 -88 56 -113 29 -27 45 -60 30 -60 -6 0 -10 -5 -10 -11 0 -13 -87 -100 -98
-97 -13 4 -82 -26 -82 -35 0 -4 -4 -6 -9 -3 -11 7 -131 -105 -131 -122 0 -7
-4 -10 -10 -7 -5 3 -10 -3 -10 -14 0 -12 -4 -21 -8 -21 -9 0 -29 -37 -30 -54
0 -5 -5 -12 -11 -15 -6 -4 -12 -16 -14 -26 -1 -11 -5 -24 -9 -30 -6 -10 -21
-73 -18 -77 1 -2 -4 -16 -10 -33 -6 -16 -13 -47 -15 -69 -5 -41 -13 -100 -21
-151 -3 -16 -17 -52 -31 -80 -56 -107 -77 -154 -75 -168 1 -4 -9 -7 -23 -7
-34 0 -30 1 -74 -15 -22 -7 -42 -11 -45 -8 -3 4 -6 1 -6 -5 0 -6 -8 -13 -17
-16 -10 -4 -39 -26 -65 -49 -26 -24 -64 -57 -85 -72 -21 -16 -42 -35 -46 -42
-4 -7 -15 -13 -22 -13 -8 0 -15 -6 -15 -13 0 -20 -42 -41 -90 -43 -62 -2 -150
-37 -177 -69 -20 -23 -28 -50 -24 -78 0 -4 -2 -7 -7 -7 -4 0 -8 -28 -9 -62 -2
-79 -10 -108 -27 -108 -8 0 -16 -6 -19 -12 -2 -7 -36 -29 -75 -48 l-71 -35 0
-157 -1 -158 2565 0 2565 0 0 390 c0 418 0 419 -51 475 -10 11 -31 35 -48 53
-16 17 -34 32 -40 32 -6 0 -11 5 -11 10 0 6 -6 10 -14 10 -8 0 -16 3 -18 8 -4
9 -221 117 -230 114 -5 -1 -8 2 -8 6 0 5 -18 15 -40 22 -22 7 -40 16 -40 19 0
6 -52 31 -78 36 -7 2 -20 9 -29 17 -9 7 -30 17 -46 23 -31 10 -59 51 -66 95
-6 42 -6 45 -12 55 -3 6 -6 26 -7 45 -2 19 -8 60 -14 90 -7 30 -11 59 -9 64 1
4 -4 15 -11 24 -11 13 -11 14 2 7 12 -7 12 -5 -1 11 -9 10 -15 29 -14 42 1 12
-2 22 -7 22 -4 0 -8 8 -8 18 0 10 -3 22 -7 26 -4 3 -8 13 -9 21 -6 39 -76 161
-101 178 -7 4 -18 13 -25 20 -22 22 -70 52 -143 92 -38 21 -73 43 -77 49 -4 6
-8 8 -8 4 0 -4 -26 2 -57 13 -58 20 -213 59 -246 62 -9 1 -29 11 -44 22 -26
21 -26 22 -25 161 0 150 8 321 17 369 10 58 16 159 11 181 -3 12 -19 27 -36
34 -49 20 -47 14 -64 190 -9 86 -19 146 -26 160 -4 8 -5 21 -3 28 3 6 0 12 -5
12 -5 0 -9 10 -9 23 1 12 -13 51 -30 87 -37 79 -45 99 -48 127 -5 37 -16 66
-56 150 -48 102 -63 136 -61 146 1 4 -3 7 -9 7 -5 0 -8 4 -4 9 3 5 -2 17 -11
25 -8 9 -12 16 -7 16 4 0 3 4 -2 8 -6 4 -16 20 -23 35 -7 17 -17 25 -24 21 -6
-4 -8 -3 -5 3 3 5 -1 22 -8 37 -8 16 -12 32 -9 37 3 5 1 9 -5 9 -6 0 -8 6 -5
13 2 7 -3 22 -13 32 -10 11 -24 32 -32 46 -12 23 -29 37 -66 50 -20 7 -45 34
-45 48 0 8 -3 12 -6 8 -4 -3 -24 3 -45 14 -22 11 -39 16 -39 12 0 -5 -4 -2 -8
5 -5 7 -24 15 -43 18 -43 7 -311 12 -323 6 -15 -8 -106 -7 -106 1 0 5 -6 5
-12 1 -17 -11 -62 -11 -69 0 -4 4 -10 3 -14 -3z"/>
</g>
</svg>
