<?xml version="1.0" standalone="no"?>
<!DOCTYPE svg PUBLIC "-//W3C//DTD SVG 20010904//EN"
 "http://www.w3.org/TR/2001/REC-SVG-20010904/DTD/svg10.dtd">
<svg version="1.0" xmlns="http://www.w3.org/2000/svg"
 width="2822.000000pt" height="2822.000000pt" viewBox="0 0 2822.000000 2822.000000"
 preserveAspectRatio="xMidYMid meet">
<metadata>
Created by potrace 1.11, written by Peter Selinger 2001-2013
</metadata>
<g transform="translate(0.000000,2822.000000) scale(0.100000,-0.100000)"
fill="#000000" stroke="none">
<path d="M14090 25649 c-515 -38 -997 -110 -1570 -235 -614 -134 -700 -159
-762 -219 -48 -47 -68 -92 -68 -156 0 -66 30 -130 76 -166 19 -14 31 -29 27
-34 -4 -4 -74 -36 -154 -72 -475 -212 -1108 -625 -1314 -857 -79 -89 -100
-159 -71 -238 14 -38 14 -47 2 -70 -21 -39 -157 -199 -290 -341 -218 -230
-268 -302 -371 -535 -84 -187 -128 -320 -156 -466 -20 -102 -23 -161 -29 -535
-3 -231 -9 -427 -13 -435 -11 -27 -38 -262 -32 -281 7 -22 38 -25 53 -6 5 6
15 37 22 68 10 44 18 58 39 67 64 29 169 97 188 123 21 28 132 97 453 281 363
208 454 258 469 258 22 0 11 -66 -19 -113 -43 -68 -58 -108 -86 -227 -26 -107
-77 -220 -100 -220 -50 0 -93 -97 -185 -417 -28 -98 -100 -340 -159 -539 -127
-420 -171 -586 -204 -768 -24 -128 -76 -535 -76 -592 l0 -28 16 23 17 23 19
-31 c13 -20 28 -31 43 -31 23 0 35 -17 35 -50 0 -11 9 -27 19 -37 19 -17 19
-22 5 -93 -8 -41 -14 -94 -14 -117 0 -86 -4 -89 -127 -96 -59 -3 -173 -13
-253 -21 -80 -8 -197 -18 -261 -21 -79 -5 -137 -14 -183 -29 -36 -12 -66 -21
-66 -20 0 2 4 14 10 29 5 14 12 40 15 58 3 18 21 102 40 187 18 85 48 237 67
337 18 101 36 183 41 183 4 0 7 -6 7 -14 0 -16 27 -29 42 -20 5 4 21 30 34 58
l24 51 0 -43 c0 -56 16 -46 24 15 4 27 47 248 96 493 154 779 240 1254 240
1333 0 45 -31 30 -61 -30 -15 -29 -30 -49 -33 -46 -13 14 -37 11 -45 -5 -8
-16 -54 -230 -66 -313 -17 -108 -53 -291 -54 -269 0 14 10 115 24 225 30 242
32 323 9 332 -32 12 -42 -12 -133 -312 -109 -364 -193 -739 -261 -1160 -22
-143 -56 -355 -75 -471 -33 -200 -54 -395 -74 -674 -6 -98 -14 -139 -35 -193
-29 -72 -29 -106 2 -142 31 -38 66 -55 109 -55 45 0 64 13 88 61 9 16 27 32
42 35 26 7 149 -2 413 -31 281 -30 312 -34 318 -39 8 -9 -47 -325 -79 -444
-49 -188 -110 -324 -209 -472 -71 -105 -113 -188 -106 -206 3 -8 14 -14 25
-14 16 0 20 -8 23 -42 2 -31 8 -44 21 -46 14 -3 17 4 17 42 0 65 105 264 219
417 49 65 102 144 118 176 26 54 28 69 34 223 7 165 19 225 68 330 l12 25 197
-3 c232 -4 212 -13 265 123 20 50 47 117 61 150 34 81 35 157 2 190 -33 33
-76 42 -271 55 -93 6 -189 13 -212 16 -50 6 -48 1 -32 138 6 50 13 110 15 133
4 34 9 42 27 45 24 3 24 -3 12 163 -10 126 10 207 89 374 67 141 106 262 127
391 6 41 24 113 39 160 36 107 61 260 61 359 0 42 -1 171 -2 286 l-1 210 32
100 c41 126 140 355 240 555 43 85 83 173 89 195 14 51 14 135 0 209 l-10 59
48 69 c66 96 256 260 459 395 l80 54 100 -18 c77 -13 159 -17 364 -17 233 -1
281 2 395 22 213 38 363 78 695 187 477 156 610 184 784 165 127 -15 220 -52
439 -174 303 -169 444 -223 697 -266 241 -41 428 -45 790 -15 166 14 429 33
751 55 228 16 496 -9 641 -59 74 -26 124 -52 263 -139 261 -164 426 -222 713
-253 179 -19 311 10 453 102 33 22 66 39 73 39 8 0 41 8 73 18 l59 19 17 -23
c23 -31 83 -47 127 -34 19 6 36 10 37 10 1 0 44 -55 96 -122 183 -238 264
-395 385 -743 131 -378 167 -497 230 -775 59 -257 82 -377 137 -735 48 -308
54 -368 69 -625 13 -235 17 -262 44 -346 17 -50 53 -134 80 -188 28 -53 65
-136 82 -184 30 -80 33 -98 34 -214 0 -69 -2 -129 -5 -133 -4 -3 -78 10 -165
29 -88 19 -179 38 -203 42 -28 5 -67 23 -105 49 -118 82 -298 157 -431 179
-56 9 -200 17 -377 21 -158 4 -300 10 -315 14 -26 7 -28 12 -33 68 -8 99 -48
125 -130 83 -21 -11 -59 -24 -85 -30 -66 -15 -127 -53 -208 -129 -57 -54 -74
-65 -98 -63 -20 3 -36 -4 -53 -21 l-25 -25 -15 23 c-20 30 -52 40 -81 25 -42
-22 -50 -55 -50 -203 l0 -139 -105 -47 c-58 -26 -138 -66 -179 -90 l-74 -44
-136 7 c-75 3 -252 11 -394 16 -614 23 -790 68 -1377 350 -230 110 -414 190
-438 190 -24 0 -21 25 18 150 22 72 40 138 40 146 0 8 -11 26 -24 39 -30 30
-45 26 -105 -28 -54 -50 -84 -47 -167 15 -85 64 -106 75 -353 193 -234 111
-348 155 -401 155 -43 0 -90 -47 -90 -89 0 -17 -4 -31 -10 -31 -5 0 -67 16
-137 35 -198 54 -373 77 -608 77 -179 1 -213 -2 -325 -25 -242 -51 -390 -103
-535 -190 l-73 -45 -139 -6 c-256 -13 -639 -57 -836 -97 -125 -25 -300 -78
-404 -123 -44 -19 -84 -32 -87 -29 -3 3 -16 -1 -29 -10 -19 -12 -26 -30 -35
-86 -18 -104 -16 -311 3 -338 10 -14 55 -34 142 -62 146 -46 169 -59 216 -121
68 -90 75 -113 65 -225 -9 -109 -3 -174 37 -380 13 -71 25 -142 25 -157 0 -33
62 -361 85 -448 41 -158 131 -444 174 -550 83 -207 233 -416 435 -606 166
-155 289 -244 451 -324 335 -167 830 -258 1415 -261 142 -1 189 3 340 29 197
35 397 102 505 171 33 21 74 42 90 46 35 8 65 29 195 139 135 114 260 242 372
382 53 67 118 145 145 173 71 78 167 215 217 311 41 80 63 128 201 450 30 69
63 166 75 215 12 50 27 113 35 140 28 106 28 140 0 183 -14 22 -28 54 -31 73
-7 42 19 69 90 93 67 22 264 40 361 33 160 -12 573 -115 583 -146 2 -6 -8 -36
-22 -67 -28 -60 -32 -84 -16 -84 17 0 11 -28 -16 -87 -19 -40 -28 -77 -32
-139 -2 -47 -9 -87 -13 -90 -5 -3 -9 0 -9 7 0 19 -82 223 -97 239 -12 13 -15
13 -24 0 -16 -24 -3 -393 20 -565 21 -150 91 -512 156 -805 32 -145 65 -380
81 -582 6 -89 19 -116 49 -104 13 4 15 32 15 167 0 88 -4 238 -10 332 -5 95
-12 212 -14 260 l-5 89 36 -59 c19 -32 46 -79 59 -104 33 -66 154 -244 211
-311 26 -31 93 -96 148 -145 55 -48 111 -99 125 -113 85 -87 321 -261 465
-345 115 -66 242 -124 339 -154 119 -37 397 -52 551 -31 39 6 144 14 235 19
174 10 322 35 438 76 78 28 353 148 398 174 l31 19 7 -76 c14 -168 7 -333 -25
-547 -16 -115 -39 -293 -49 -395 -40 -399 -62 -547 -100 -706 -53 -214 -75
-284 -105 -328 -28 -42 -32 -64 -11 -72 24 -9 56 15 87 64 31 48 206 572 280
837 96 343 133 622 132 985 -1 129 -5 269 -10 310 l-10 74 58 71 c31 38 87 99
124 135 206 201 512 679 590 920 15 47 45 128 66 180 37 94 86 251 119 385 9
39 34 126 55 195 20 69 39 130 41 137 3 13 112 47 188 60 l49 8 53 154 c58
165 72 261 45 309 -19 36 -118 95 -253 150 -188 77 -644 213 -993 296 -60 15
-126 31 -146 36 l-37 10 15 42 c22 65 56 326 49 388 -6 62 -37 169 -90 314
-46 123 -62 232 -75 496 -13 264 -46 578 -77 750 -89 484 -376 1367 -566 1739
-72 141 -163 279 -253 384 l-67 78 44 37 c165 141 294 359 359 610 47 182 62
327 56 552 -4 176 -7 206 -35 311 -102 394 -322 737 -680 1061 -165 150 -234
204 -387 306 -296 198 -594 323 -1018 428 -497 122 -792 168 -860 133 -29 -15
-57 -50 -57 -73 0 -13 -5 -16 -17 -11 -37 15 -205 45 -388 69 -104 14 -271 37
-370 51 -519 71 -1127 101 -1495 74z m975 -359 c439 -31 926 -89 1135 -136
215 -49 339 -53 415 -14 45 24 61 42 91 108 3 6 417 -85 544 -119 325 -87 525
-180 770 -358 446 -322 765 -729 884 -1123 71 -237 84 -521 34 -752 -6 -28
-12 -46 -14 -41 -5 15 -52 326 -68 450 -18 137 -64 271 -160 470 -105 217
-328 577 -428 690 -49 56 -362 266 -493 332 -163 83 -294 120 -571 162 -127
19 -426 91 -463 110 -13 7 -24 6 -38 -4 -89 -62 -345 -58 -678 11 -161 33
-524 80 -810 104 -355 30 -965 23 -1315 -16 -297 -33 -1004 -146 -1340 -214
-52 -11 -138 -22 -190 -26 -52 -4 -100 -11 -106 -15 -8 -6 -13 -2 -17 13 -7
27 -1 38 22 38 10 0 123 27 252 60 476 121 1184 253 1503 280 128 11 843 4
1041 -10z m-595 -297 c146 -12 338 -27 428 -33 206 -13 378 -43 453 -76 33
-15 59 -30 59 -34 0 -3 -28 -3 -62 1 -85 11 -489 45 -788 66 -349 24 -1152 25
-1403 0 -99 -9 -183 -15 -188 -11 -16 10 -10 33 14 48 25 17 131 32 367 51
248 20 791 14 1120 -12z m1815 -105 c110 -37 297 -94 415 -127 118 -32 292
-86 385 -119 311 -108 535 -225 535 -280 0 -22 -43 -7 -139 50 -159 94 -542
254 -791 331 -146 45 -435 121 -695 183 l-140 34 115 -3 c112 -3 120 -4 315
-69z m-3045 -373 c10 -13 7 -17 -25 -31 -66 -27 -182 -53 -425 -95 -311 -53
-426 -80 -800 -190 -173 -50 -328 -92 -344 -93 -35 -1 -56 25 -40 52 17 29 91
59 289 117 271 80 791 210 915 229 144 21 158 23 296 24 97 2 124 -1 134 -13z
m5476 -1892 c-7 -63 -41 -157 -102 -289 -61 -131 -60 -131 -96 -92 l-29 31 30
31 c42 44 128 221 147 302 24 103 22 98 40 83 13 -10 15 -25 10 -66z m-9329
-2290 c-3 -10 -5 -4 -5 12 0 17 2 24 5 18 2 -7 2 -21 0 -30z m-190 -1055 c-3
-8 -6 -5 -6 6 -1 11 2 17 5 13 3 -3 4 -12 1 -19z m-10 -70 c-3 -7 -5 -2 -5 12
0 14 2 19 5 13 2 -7 2 -19 0 -25z m4663 -382 c0 -2 -7 -9 -15 -16 -12 -10 -15
-10 -15 4 0 9 7 16 15 16 8 0 15 -2 15 -4z m-1215 -62 c-55 -21 -206 -56 -212
-50 -5 5 97 37 172 55 62 14 85 11 40 -5z m1390 -184 c3 -5 -1 -10 -10 -10 -9
0 -13 5 -10 10 3 6 8 10 10 10 2 0 7 -4 10 -10z m-2010 -280 c4 -6 -7 -10 -27
-9 -31 1 -32 1 -8 9 14 4 26 8 27 9 1 1 5 -3 8 -9z m135 -90 c146 -6 317 -17
380 -25 63 -8 211 -19 329 -25 398 -19 687 -62 1026 -150 105 -28 224 -59 265
-70 301 -78 437 -110 481 -110 40 0 73 27 64 53 -7 17 12 97 23 97 18 -1 185
-97 256 -148 105 -76 245 -225 323 -343 117 -180 149 -281 139 -450 -7 -120
-44 -340 -86 -509 -15 -63 -35 -155 -45 -205 -9 -49 -32 -130 -52 -180 -43
-109 -173 -343 -251 -453 -138 -194 -215 -271 -357 -354 -38 -23 -108 -71
-154 -106 -85 -65 -105 -76 -153 -86 -15 -4 -56 -26 -92 -51 -145 -99 -500
-145 -831 -107 -60 6 -191 19 -290 28 -99 8 -198 19 -220 24 -22 5 -78 14
-125 20 -138 18 -256 49 -401 106 -170 65 -208 85 -339 171 -284 188 -490 407
-610 648 -54 110 -111 300 -136 455 -46 288 -18 823 57 1115 48 187 188 430
311 538 81 72 178 134 202 130 12 -1 140 -7 286 -13z m7657 -636 c-3 -3 -12
-4 -19 -1 -8 3 -5 6 6 6 11 1 17 -2 13 -5z m-2165 -71 c15 -13 25 -15 46 -7
15 5 50 7 77 3 28 -3 208 -2 400 3 193 5 433 12 535 15 211 5 674 -11 918 -32
91 -8 167 -16 169 -18 5 -6 -26 -377 -47 -562 -11 -93 -31 -219 -45 -280 -15
-60 -32 -139 -40 -175 -57 -258 -39 -600 50 -985 60 -260 105 -489 98 -495
-36 -31 -155 -107 -233 -148 -290 -154 -686 -231 -990 -192 -147 19 -335 62
-423 96 -167 64 -347 161 -482 259 -199 145 -310 242 -325 284 -6 20 -42 97
-80 171 -87 175 -135 324 -206 645 -35 161 -42 334 -20 515 27 217 14 193 151
271 65 38 124 69 129 69 7 0 12 -29 14 -70 1 -39 11 -93 21 -120 l19 -50 -98
0 c-102 0 -130 -11 -96 -36 10 -7 52 -15 94 -19 75 -7 186 -20 402 -50 58 -8
204 -19 325 -25 189 -10 239 -9 345 5 184 24 240 43 240 81 0 28 -36 34 -139
22 -55 -6 -103 -9 -106 -6 -3 3 4 34 17 69 18 52 23 85 23 177 0 61 3 112 7
112 4 0 67 -22 140 -48 106 -38 166 -68 292 -146 176 -109 236 -139 260 -130
27 10 18 42 -16 60 -18 10 -84 56 -147 103 -261 198 -337 243 -511 305 -191
69 -495 89 -706 48 -206 -41 -378 -112 -568 -237 l-30 -20 32 60 c48 89 158
238 184 249 50 22 797 0 1008 -29 19 -3 94 -9 165 -15 72 -5 185 -15 253 -21
l123 -12 37 -42 c20 -23 53 -70 72 -103 36 -63 60 -79 60 -41 0 29 -70 153
-115 206 -63 73 -170 101 -540 139 -132 13 -276 29 -320 35 -44 5 -199 12
-344 16 l-263 6 33 26 c44 35 112 80 123 80 5 1 18 -7 28 -16z m2598 -168
c197 -150 281 -241 300 -327 16 -68 25 -268 24 -483 -2 -203 -24 -328 -105
-586 -88 -282 -204 -510 -345 -678 -104 -123 -111 -130 -119 -99 -3 12 -18 79
-34 148 -37 155 -125 606 -142 719 -15 106 -7 234 26 416 50 273 125 900 125
1039 0 27 142 -52 270 -149z m-10445 48 c-9 -15 -13 -19 -10 -8 4 11 10 29 13
40 3 11 7 14 9 8 3 -7 -3 -24 -12 -40z m8462 -335 c18 -14 36 -145 29 -209 -3
-31 -15 -82 -26 -113 -19 -49 -25 -56 -48 -56 -106 0 -739 33 -745 39 -31 30
-51 248 -24 268 6 6 46 19 89 31 l76 20 -14 -34 c-16 -39 -16 -39 22 -19 44
23 69 18 108 -19 25 -23 36 -42 36 -62 0 -40 -34 -92 -65 -100 -21 -5 -23 -9
-13 -21 6 -8 30 -24 52 -35 35 -18 52 -20 122 -15 92 7 145 25 187 65 70 66
85 155 42 237 l-26 47 93 -7 c51 -4 98 -11 105 -17z m-3162 -1325 c-98 -132
-373 -431 -374 -407 -1 5 46 57 104 115 58 57 147 155 196 217 50 61 93 112
96 112 3 0 -7 -17 -22 -37z m5085 -526 c0 -2 -12 -14 -27 -28 l-28 -24 24 28
c23 25 31 32 31 24z m-50 -60 c0 -1 -26 -27 -57 -57 l-58 -55 55 58 c50 53 60
62 60 54z m-310 -293 c-8 -8 -23 -20 -34 -25 -13 -7 -9 -1 9 15 34 29 43 33
25 10z"/>
<path d="M12450 17798 c-188 -15 -244 -42 -319 -153 -56 -85 -81 -149 -63
-167 22 -22 62 3 125 79 71 86 102 104 229 128 79 15 328 35 413 34 38 -1 37
-2 -25 -18 -176 -48 -260 -98 -443 -265 -78 -70 -152 -135 -165 -144 -16 -10
-22 -23 -20 -41 3 -23 7 -26 39 -25 28 1 72 24 193 103 86 56 163 104 170 107
10 4 13 -17 13 -93 1 -95 9 -132 58 -245 6 -16 0 -18 -53 -18 -88 0 -121 -43
-70 -90 28 -26 64 -35 223 -56 150 -21 347 -23 853 -10 278 7 345 12 349 23 3
8 3 17 0 20 -4 3 -98 11 -211 17 -112 6 -207 14 -211 18 -4 3 9 30 29 60 39
60 74 157 83 230 3 26 9 48 13 48 3 0 53 -25 110 -56 98 -52 164 -92 360 -215
92 -58 187 -96 214 -86 21 8 30 31 22 61 -4 17 -46 52 -143 117 -76 51 -205
143 -288 204 -271 201 -398 269 -606 325 l-114 31 110 -6 c61 -3 220 -10 355
-15 289 -10 331 -20 442 -100 41 -30 68 -30 68 -1 0 22 -83 102 -142 135 -63
37 -161 52 -408 65 -221 12 -1034 11 -1190 -1z m443 -289 c-38 -42 -63 -89
-63 -119 1 -22 2 -23 13 -9 19 24 52 39 89 39 39 0 82 -38 93 -82 16 -65 -63
-141 -125 -119 -38 13 -31 -8 13 -42 55 -40 116 -60 194 -60 62 0 81 4 140 34
85 43 124 90 131 158 6 66 -3 111 -33 155 -13 20 -23 36 -21 36 12 0 121 -42
163 -64 45 -22 53 -31 59 -62 19 -101 -24 -244 -97 -327 l-34 -39 -125 11
c-69 6 -207 18 -308 26 -100 9 -189 18 -197 22 -22 8 -65 84 -81 145 -18 70
-18 172 1 236 14 46 19 52 53 61 68 19 117 29 140 30 22 1 22 1 -5 -30z"/>
<path d="M8063 18196 c-126 -31 -243 -122 -365 -286 -113 -152 -159 -264 -185
-451 -15 -108 -16 -146 -5 -333 18 -332 58 -622 133 -979 86 -407 131 -634
164 -837 110 -682 162 -886 297 -1153 104 -208 203 -319 362 -406 175 -96 333
-126 522 -97 56 8 126 24 155 36 30 11 58 20 63 20 10 0 4 -191 -14 -475 -14
-216 -8 -293 31 -398 16 -44 40 -150 54 -236 37 -219 51 -283 88 -386 l31 -90
0 -295 c0 -301 -5 -375 -54 -745 -18 -134 -32 -215 -47 -268 -9 -34 -34 -36
-252 -22 -200 14 -435 47 -667 95 -146 30 -260 47 -434 65 -325 33 -696 86
-847 122 -17 4 -23 12 -23 33 0 21 16 43 70 94 39 36 74 66 78 66 4 0 16 -7
26 -15 11 -8 31 -15 45 -15 24 0 23 -2 -13 -23 -57 -32 -67 -53 -36 -79 20
-16 33 -19 73 -14 106 15 135 52 32 43 -36 -4 -65 -2 -65 3 0 4 15 18 33 29
18 11 41 29 51 40 17 19 18 19 37 0 12 -12 33 -19 56 -19 l38 0 -38 -31 c-90
-74 -4 -128 125 -79 29 11 54 20 56 20 1 0 -4 -13 -13 -30 -38 -74 -3 -112 51
-55 37 39 41 41 63 22 37 -32 255 -99 364 -112 44 -6 57 -3 77 13 20 17 22 22
11 35 -7 9 -91 41 -187 73 -96 31 -177 60 -179 65 -3 4 33 34 80 66 76 52 107
85 92 99 -3 3 -49 -16 -102 -41 -53 -26 -98 -45 -100 -43 -2 2 7 28 20 58 33
74 33 110 1 110 -20 0 -36 -20 -97 -125 -43 -73 -76 -120 -80 -113 -5 7 -27 9
-68 5 l-61 -7 35 32 c54 47 46 70 -30 83 l-60 10 65 39 c130 78 157 111 112
135 -40 21 -203 -84 -239 -153 -8 -14 -24 -20 -61 -23 -92 -7 -79 8 93 114 20
12 30 26 30 43 0 34 -40 36 -125 7 -51 -17 -66 -27 -68 -44 -2 -17 2 -23 15
-23 15 0 13 -4 -9 -27 -26 -25 -28 -26 -46 -10 -18 16 -26 16 -118 2 -143 -23
-144 -23 -144 -43 0 -29 21 -42 67 -42 l43 0 -30 -42 c-19 -26 -30 -53 -30
-75 0 -18 -3 -33 -7 -33 -27 0 -348 91 -501 141 -225 74 -376 136 -564 230
-116 58 -311 162 -327 175 -7 6 130 171 193 234 70 69 80 90 42 90 -27 0 -85
-37 -138 -88 -43 -41 -47 -38 -17 13 17 28 19 39 10 48 -10 9 -21 3 -49 -29
-35 -39 -41 -42 -99 -46 -35 -2 -61 -2 -58 0 2 3 26 19 52 36 53 34 60 55 26
71 -21 11 -17 14 48 43 61 27 70 34 67 54 -4 31 -29 27 -139 -22 -65 -28 -89
-35 -89 -25 0 8 -18 19 -42 26 l-43 11 60 30 c72 36 135 94 135 123 0 54 -69
69 -171 39 -96 -29 -175 -75 -268 -159 -95 -85 -103 -94 -97 -120 l6 -24 -52
24 c-161 71 -157 67 -69 80 60 8 188 59 217 86 48 45 31 46 -106 4 -99 -30
-196 -48 -221 -40 -20 7 -20 8 8 37 15 16 41 39 56 50 l28 20 15 -21 c25 -35
92 -26 201 26 65 31 133 93 133 121 0 12 -11 29 -25 38 -22 14 -34 15 -82 5
-142 -28 -380 -185 -401 -263 l-7 -28 -145 69 c-267 126 -416 170 -525 155
-67 -9 -144 -38 -194 -74 -26 -19 -53 -30 -75 -30 -62 0 -159 -39 -336 -134
-230 -124 -262 -145 -415 -272 -244 -204 -401 -376 -434 -477 -7 -20 -81 -102
-199 -222 -198 -200 -337 -374 -513 -640 -253 -384 -369 -695 -410 -1100 -20
-201 9 -513 66 -711 70 -239 204 -455 355 -570 29 -22 50 -46 50 -57 0 -60
-123 -221 -267 -347 -104 -92 -197 -146 -383 -220 -295 -118 -383 -181 -429
-306 -42 -110 -46 -274 -10 -407 5 -20 8 -41 5 -46 -3 -5 -74 -11 -158 -14
-119 -4 -168 -10 -223 -27 -151 -48 -344 -168 -448 -279 l-47 -50 0 -3166 0
-3165 761 0 761 0 -7 32 c-15 76 -524 1568 -689 2021 -265 726 -373 1153 -417
1635 -18 203 -7 669 20 847 53 346 171 696 361 1070 104 205 176 322 291 475
114 150 189 224 221 217 171 -38 282 -61 373 -77 157 -28 236 -53 545 -175
426 -169 1044 -486 1221 -626 47 -37 85 -38 101 -4 15 34 1 57 -72 119 -120
102 -320 225 -683 423 -219 118 -538 294 -545 299 -2 1 8 14 22 29 82 89 54
197 -109 425 -83 115 -121 180 -136 232 -12 44 16 122 76 207 77 111 232 377
255 438 11 30 23 92 26 138 5 54 11 85 19 85 6 0 41 -18 78 -40 36 -22 69 -40
73 -40 4 0 57 -37 118 -83 91 -68 160 -107 376 -214 146 -71 308 -147 360
-167 109 -42 183 -87 458 -277 286 -199 540 -359 567 -359 27 0 48 30 39 54
-6 17 -80 74 -324 251 -214 156 -423 321 -559 442 -73 65 -169 138 -229 175
-141 87 -318 212 -371 261 -84 81 -329 383 -407 502 -87 134 -245 490 -298
673 -55 189 -82 456 -65 629 18 179 98 442 196 639 79 162 258 377 367 443
l56 34 19 -24 c59 -75 205 -248 337 -400 194 -224 322 -382 375 -464 44 -68
72 -82 99 -49 11 13 10 23 -9 62 -39 80 -163 259 -312 447 -78 99 -172 221
-209 270 -65 87 -140 220 -140 248 0 8 24 33 53 56 65 52 93 92 108 156 20 88
62 219 82 260 11 22 42 68 69 102 71 90 303 309 395 374 l80 57 21 -78 c21
-77 95 -266 153 -390 71 -151 252 -444 432 -700 178 -252 499 -685 638 -860
180 -226 467 -609 679 -905 106 -148 280 -382 385 -520 106 -137 276 -360 379
-495 326 -426 411 -534 711 -894 160 -193 390 -472 511 -621 570 -700 1038
-1265 1289 -1555 89 -102 289 -336 445 -520 1089 -1284 1224 -1423 1850 -1895
151 -114 596 -409 725 -481 61 -34 197 -109 303 -168 183 -101 434 -254 712
-433 217 -140 556 -345 810 -490 135 -77 299 -172 365 -210 206 -119 608 -331
903 -475 l283 -138 454 2 453 3 -181 117 c-305 195 -425 262 -877 489 -239
121 -484 245 -544 278 l-109 59 -69 104 c-139 205 -319 414 -952 1108 -88 96
-293 310 -456 475 -544 552 -667 681 -1054 1110 -110 121 -380 400 -601 620
-501 499 -642 667 -804 959 -33 61 -59 112 -56 114 2 2 30 -16 62 -40 373
-283 879 -534 1453 -718 176 -57 211 -62 198 -28 -3 7 -61 33 -129 57 -419
148 -685 271 -957 442 -335 212 -539 366 -719 544 -78 77 -86 90 -161 246 -70
146 -303 593 -386 739 l-31 55 85 -75 c136 -120 186 -161 336 -273 310 -231
564 -406 762 -526 253 -152 968 -487 1323 -619 257 -95 655 -197 1154 -296
497 -97 815 -123 1185 -96 228 17 538 68 770 126 201 50 225 59 368 131 284
142 406 241 457 368 15 39 49 116 76 171 26 56 57 124 68 152 31 77 63 213 57
237 -5 21 8 73 118 466 25 91 62 237 82 325 19 87 55 238 79 334 24 96 45 184
47 195 2 11 12 -27 22 -85 19 -110 74 -335 101 -409 31 -88 13 -500 -36 -814
-12 -78 -38 -227 -59 -332 -35 -179 -41 -198 -102 -326 -101 -211 -179 -322
-338 -480 -123 -122 -150 -159 -118 -159 33 0 232 174 355 311 96 107 141 190
227 420 110 297 142 478 154 894 l7 220 99 -260 c112 -293 142 -380 191 -568
98 -372 198 -1246 215 -1877 5 -190 14 -446 20 -570 32 -731 34 -807 22 -1324
-9 -348 -9 -552 -3 -641 15 -197 59 -710 76 -885 9 -85 18 -226 22 -312 l6
-158 139 0 138 0 0 133 c-1 217 -18 506 -63 1032 -19 226 -20 312 -18 890 1
352 -3 744 -8 870 -6 127 -15 325 -20 440 -6 116 -13 302 -16 415 -6 202 -20
478 -30 595 -10 102 -26 239 -32 260 -3 12 21 -5 63 -46 158 -150 238 -216
639 -529 116 -90 242 -192 282 -226 91 -79 136 -112 353 -260 96 -65 265 -186
375 -269 110 -82 225 -166 256 -186 30 -20 105 -72 166 -115 60 -44 118 -84
128 -89 16 -10 16 -14 -10 -65 -50 -99 -106 -192 -245 -405 -138 -212 -211
-334 -577 -965 -244 -420 -275 -478 -352 -651 -32 -75 -100 -217 -149 -315
-49 -99 -122 -251 -162 -339 -40 -88 -74 -163 -77 -167 -2 -5 47 -8 110 -8
l113 0 85 187 c144 320 339 671 594 1068 67 105 191 305 275 445 184 307 267
437 433 679 70 101 141 208 158 238 17 30 35 51 39 46 5 -4 15 -117 24 -249
16 -246 54 -611 81 -784 9 -52 35 -196 60 -320 52 -262 115 -645 145 -880 18
-144 50 -337 67 -407 l5 -23 275 0 275 0 -5 22 c-6 21 -38 153 -248 1018 -204
844 -230 945 -343 1339 -64 222 -130 457 -147 524 -28 113 -30 125 -18 191 15
93 6 176 -36 306 -19 59 -35 123 -35 144 0 20 15 87 34 149 46 153 82 314 108
490 12 81 24 147 28 147 6 0 90 -300 176 -630 93 -359 216 -780 389 -1330 54
-174 299 -1178 545 -2232 l32 -138 499 0 c472 0 500 1 495 18 -3 9 -21 87 -40
172 -19 85 -60 261 -90 390 -76 325 -189 895 -225 1135 -17 110 -58 387 -91
615 -172 1174 -309 1753 -569 2408 -98 245 -143 342 -296 633 -247 470 -376
668 -649 999 -76 92 -98 125 -107 165 -24 104 -143 495 -186 615 -76 209 -192
499 -247 616 -67 141 -293 555 -409 749 -234 391 -446 671 -740 975 -268 277
-321 326 -376 355 -28 14 -51 27 -51 29 0 2 25 44 56 92 31 49 69 118 85 153
38 85 90 152 215 282 114 119 137 157 184 308 17 58 59 166 92 240 33 75 75
181 95 236 40 116 92 217 203 392 142 224 177 352 166 593 -8 159 -30 335 -47
372 -26 58 -63 37 -74 -41 -7 -50 -7 -50 -29 -35 -32 20 -51 11 -125 -63 -35
-35 -115 -105 -179 -156 -88 -70 -126 -109 -164 -165 -36 -53 -65 -83 -106
-109 -31 -20 -100 -74 -152 -120 -82 -71 -100 -83 -132 -83 -49 0 -88 -35
-153 -135 -29 -44 -63 -89 -76 -100 -35 -29 -69 -47 -69 -36 0 11 89 320 139
482 16 53 39 113 50 135 12 21 21 43 21 49 0 5 14 30 30 54 17 24 30 54 30 66
0 12 9 57 20 100 25 97 27 271 5 383 -25 123 -69 201 -192 335 -67 73 -140
141 -193 178 -128 92 -455 252 -635 311 -82 27 -183 63 -223 80 -59 25 -82 29
-120 25 -26 -3 -150 -2 -277 2 -197 7 -239 11 -295 30 -102 35 -241 39 -381
12 -63 -12 -130 -27 -150 -32 -20 -5 -51 -9 -69 -9 -81 0 -256 35 -398 81 -85
27 -184 54 -221 61 l-66 13 95 6 c52 3 106 9 120 13 20 6 35 -1 72 -30 29 -22
54 -34 63 -30 32 12 27 36 -19 90 -25 30 -50 65 -55 79 -12 31 -81 65 -211
103 -78 23 -112 28 -190 27 -184 -3 -345 -45 -395 -105 -30 -36 -31 -54 -5
-68 13 -7 20 -21 20 -40 0 -21 8 -35 26 -46 23 -16 32 -16 112 -1 66 12 110
14 182 8 52 -4 87 -9 77 -9 -9 -1 -57 -18 -106 -37 -133 -51 -223 -74 -351
-86 -123 -12 -187 -7 -388 33 -99 20 -106 20 -224 4 -263 -35 -472 -96 -939
-274 -303 -116 -371 -137 -521 -162 -74 -12 -141 -30 -169 -44 -34 -17 -51
-21 -63 -14 -51 28 -194 -59 -346 -212 -180 -179 -199 -239 -210 -640 -7 -241
-11 -289 -33 -385 -47 -204 -59 -220 -172 -219 -100 1 -133 11 -184 59 -25 23
-71 55 -103 70 -47 22 -63 37 -98 92 -47 72 -103 114 -184 138 -47 14 -96 48
-96 67 0 5 -15 43 -34 83 -41 90 -76 116 -148 113 -53 -2 -71 11 -205 148 -51
52 -83 76 -111 83 -21 6 -59 26 -83 44 -24 19 -75 54 -114 80 -161 105 -280
219 -367 350 -14 23 -45 55 -67 71 -76 58 -172 195 -200 287 -13 39 -33 75
-59 103 -48 52 -49 58 -56 271 -7 182 -32 323 -69 388 -13 23 -28 56 -32 72
-4 17 -9 212 -10 435 -3 354 -8 537 -30 950 -2 52 -7 156 -11 230 -8 179 -15
208 -81 317 -68 115 -87 127 -155 98 -13 -5 -19 0 -25 26 -21 80 -75 54 -94
-46 -16 -85 -5 -257 25 -402 31 -146 32 -201 6 -398 -31 -236 -34 -325 -16
-460 21 -160 20 -367 -4 -615 -11 -113 -20 -225 -20 -250 l0 -45 -83 0 c-71
-1 -92 -5 -154 -33 -116 -52 -220 -53 -353 -3 -76 29 -144 83 -207 166 -140
183 -204 339 -268 645 -32 158 -80 339 -144 550 -97 322 -220 829 -266 1095
-57 331 -69 673 -31 855 30 140 176 387 264 446 113 77 347 51 559 -62 220
-116 476 -272 611 -371 84 -62 126 -75 147 -47 8 11 15 30 15 44 0 29 -38 105
-86 171 -32 44 -295 268 -351 298 -16 9 -77 48 -138 87 -139 90 -170 106 -276
138 -180 55 -325 69 -436 42z m1304 -2048 c-3 -8 -6 -5 -6 6 -1 11 2 17 5 13
3 -3 4 -12 1 -19z m10 -120 c-2 -13 -4 -3 -4 22 0 25 2 35 4 23 2 -13 2 -33 0
-45z m4338 -3143 c107 -1 148 -6 234 -29 121 -31 372 -66 483 -66 43 0 166 9
274 20 184 19 204 20 303 6 58 -9 169 -20 246 -26 160 -13 161 -13 235 -48 46
-22 74 -28 175 -33 66 -4 147 -12 180 -19 125 -26 372 4 712 86 299 72 368 82
533 79 157 -3 172 -6 510 -89 196 -49 240 -64 350 -117 220 -108 206 -98 245
-175 l28 -55 -12 -137 c-6 -75 -18 -211 -27 -302 -8 -91 -16 -248 -18 -350 -5
-209 -12 -256 -66 -390 -21 -52 -43 -124 -49 -160 -26 -144 -78 -324 -143
-499 -39 -102 -92 -268 -118 -370 -53 -201 -61 -225 -143 -438 -75 -193 -152
-293 -226 -293 -16 0 -58 -9 -93 -20 -93 -30 -261 -38 -324 -16 -75 26 -172
31 -235 13 -53 -15 -254 -32 -354 -29 -27 1 -122 2 -210 4 l-160 3 -140 -49
c-132 -46 -147 -49 -265 -54 -104 -3 -152 0 -285 23 -170 28 -322 35 -391 16
-114 -31 -138 -31 -210 -6 -79 28 -85 29 -138 14 -51 -14 -111 -71 -184 -176
-34 -49 -72 -94 -84 -102 -158 -99 -182 -111 -228 -111 -105 0 -286 85 -462
217 -242 182 -297 246 -419 488 -107 210 -131 245 -239 344 -154 141 -174 206
-185 596 -9 304 -21 355 -117 513 -63 102 -78 156 -65 225 8 41 6 64 -13 138
-31 121 -26 196 18 267 18 29 32 61 32 72 0 33 -28 35 -61 4 -36 -35 -36 -34
2 146 17 80 37 183 44 230 26 160 80 298 146 368 35 38 152 118 224 154 123
62 499 159 545 140 8 -3 74 -6 145 -7z m-8535 -566 c-31 -25 -109 -66 -92 -48
6 7 12 21 12 31 0 21 31 37 75 37 l30 1 -25 -21z m14260 -22 c0 -2 -17 -19
-37 -38 l-38 -34 34 38 c33 34 41 42 41 34z m-14025 -146 c-16 -15 -126 -61
-119 -50 3 6 30 22 58 35 54 25 77 31 61 15z m-143 -73 c-17 -17 -15 -48 5
-70 12 -14 31 -18 80 -18 60 0 63 -1 63 -25 0 -13 8 -29 18 -35 9 -6 13 -13 7
-16 -52 -23 -75 -46 -75 -74 0 -19 7 -33 19 -40 24 -12 92 -13 146 0 22 5 40
8 41 7 2 -1 -5 -30 -14 -63 l-17 -62 -70 40 c-39 22 -144 79 -234 125 l-163
86 33 14 c19 8 62 43 96 79 35 35 66 64 70 64 4 0 2 -5 -5 -12z m4512 -816
c21 -35 66 -95 101 -134 51 -56 66 -80 75 -121 32 -148 41 -164 149 -276 46
-48 65 -76 76 -116 23 -76 74 -154 127 -195 26 -19 106 -68 178 -109 159 -91
198 -126 244 -219 29 -57 60 -96 149 -185 171 -170 291 -273 414 -354 87 -57
126 -90 170 -145 94 -116 142 -166 235 -240 55 -43 115 -104 160 -161 156
-199 237 -275 403 -374 138 -83 245 -157 360 -249 116 -92 174 -121 304 -148
118 -25 143 -37 251 -111 101 -70 186 -120 240 -141 25 -10 83 -41 130 -69
137 -83 481 -280 535 -307 93 -47 652 -254 790 -294 28 -7 93 -14 145 -14 52
0 174 -11 270 -25 236 -34 293 -32 475 10 83 19 203 42 267 50 64 8 129 17
145 21 50 12 116 50 193 112 41 32 100 73 131 91 55 31 169 74 176 67 2 -2 -7
-59 -21 -127 -14 -68 -45 -248 -71 -399 -25 -151 -65 -376 -89 -500 -87 -439
-126 -656 -133 -720 -6 -66 -59 -202 -107 -279 -44 -69 -49 -56 -7 20 42 79
93 189 87 189 -3 0 -15 -17 -27 -37 -13 -21 -38 -56 -56 -79 -18 -23 -33 -51
-33 -63 0 -11 -4 -21 -9 -21 -5 0 -63 -40 -128 -88 -106 -80 -247 -172 -263
-172 -3 0 -10 -13 -16 -28 -9 -23 -26 -34 -95 -61 -111 -44 -380 -105 -614
-138 -168 -24 -220 -28 -440 -27 -357 0 -701 37 -980 106 -66 16 -183 42 -260
59 -242 51 -457 113 -770 222 -110 38 -218 77 -240 87 -22 10 -67 29 -100 43
-142 60 -536 246 -725 344 -339 175 -526 293 -1027 648 -424 301 -580 443
-1103 1011 -173 187 -322 358 -380 434 -19 25 -40 50 -46 55 -39 36 -335 433
-374 503 -47 84 -156 258 -172 274 -23 23 -17 33 59 89 28 21 78 71 110 110
32 40 94 113 138 162 169 189 282 346 395 553 219 397 276 553 344 929 24 128
75 552 91 754 l7 85 62 -120 c34 -65 79 -147 100 -182z m8376 -61 c0 -6 -4
-13 -10 -16 -5 -3 -10 1 -10 9 0 9 5 16 10 16 6 0 10 -4 10 -9z m-3463 -1897
c-3 -3 -12 -4 -19 -1 -8 3 -5 6 6 6 11 1 17 -2 13 -5z m6073 -3431 c17 -29 18
-38 8 -44 -28 -18 -38 -9 -38 36 0 25 2 45 4 45 2 0 14 -16 26 -37z m709
-1596 c36 -111 131 -437 131 -451 0 -3 -16 11 -35 31 -19 20 -35 39 -35 43 0
12 -89 415 -100 450 -11 38 -12 50 -6 50 3 0 23 -55 45 -123z m-592 -3349 c-3
-8 -6 -5 -6 6 -1 11 2 17 5 13 3 -3 4 -12 1 -19z m37 -138 c41 -185 128 -593
132 -620 13 -80 -60 209 -81 325 -15 77 -39 200 -56 272 -30 137 -32 149 -25
142 3 -2 16 -56 30 -119z"/>
<path d="M17869 12525 c-3 -2 -52 -9 -109 -14 -58 -6 -154 -21 -215 -35 -133
-30 -681 -98 -1050 -130 -618 -54 -683 -58 -1020 -63 -339 -5 -789 13 -1165
47 -58 5 -197 14 -310 20 -481 24 -710 49 -830 91 -151 53 -156 54 -184 40
-14 -8 -30 -27 -37 -43 -10 -25 -9 -37 11 -86 28 -69 51 -96 110 -130 25 -14
77 -49 115 -78 39 -29 171 -104 295 -167 124 -63 308 -157 410 -209 209 -106
303 -140 475 -170 116 -20 142 -20 780 -15 363 3 761 11 885 17 377 18 745 54
830 82 94 30 239 119 300 183 19 21 114 102 210 180 96 79 210 173 254 210 43
37 114 92 158 122 44 31 82 62 85 70 3 7 21 20 39 28 41 17 43 32 8 45 -28 11
-38 12 -45 5z m-682 -253 c-3 -16 -46 -109 -94 -208 -98 -197 -105 -206 -216
-244 -48 -17 -100 -24 -237 -30 -96 -5 -251 -15 -345 -22 -211 -16 -1107 -16
-1385 1 -232 13 -484 44 -595 72 -98 25 -181 57 -305 119 l-95 48 -2 84 -3 84
90 -12 c49 -7 165 -17 257 -24 92 -6 249 -18 348 -28 140 -13 279 -17 630 -17
619 1 833 20 1415 124 230 42 435 73 524 80 15 1 18 -4 13 -27z"/>
<path d="M16965 11244 c-27 -15 -90 -49 -139 -76 -49 -28 -123 -65 -165 -83
-42 -18 -122 -53 -178 -79 -184 -82 -473 -159 -662 -175 -248 -22 -700 19
-977 88 -145 36 -204 37 -204 5 0 -20 132 -104 216 -139 38 -16 73 -32 77 -36
5 -4 -13 -12 -40 -17 -57 -13 -172 -67 -260 -124 -72 -46 -82 -75 -36 -105 56
-38 93 -84 99 -124 6 -37 50 -89 75 -89 5 0 18 -18 29 -39 24 -48 55 -71 94
-71 16 0 75 -22 130 -50 152 -74 225 -92 387 -95 97 -2 144 -7 165 -18 55 -28
92 -30 130 -8 24 14 52 21 88 21 29 0 77 4 107 10 30 5 71 12 91 15 21 3 50
16 65 29 19 15 58 28 117 40 128 24 179 54 217 128 16 32 27 39 98 63 91 30
111 48 111 98 0 31 5 38 42 59 49 26 64 58 54 111 -7 36 -33 73 -133 186 l-53
59 83 53 c45 29 107 76 138 105 30 28 118 93 195 144 106 71 139 97 139 114 0
31 -40 31 -100 0z m-520 -464 c3 -5 1 -10 -4 -10 -6 0 -11 5 -11 10 0 6 2 10
4 10 3 0 8 -4 11 -10z m-1771 -244 c-3 -8 -12 -12 -20 -9 -17 6 -9 23 11 23 8
0 12 -6 9 -14z m1833 -123 c2 -6 -10 -16 -28 -22 -44 -15 -46 -14 -19 14 24
25 41 28 47 8z"/>
<path d="M8163 17834 c-98 -48 -180 -211 -128 -254 24 -20 63 -3 91 40 14 22
34 42 44 45 22 7 148 -37 217 -77 101 -57 259 -252 648 -802 49 -69 122 -126
136 -105 16 24 1 86 -62 248 -64 167 -151 342 -227 456 -102 152 -281 312
-439 389 -162 80 -215 92 -280 60z"/>
<path d="M8325 17333 c-36 -36 -105 -175 -143 -288 -47 -137 -158 -586 -178
-715 -38 -250 -19 -487 60 -717 49 -145 60 -167 217 -426 150 -248 170 -277
195 -277 37 0 22 42 -104 299 -143 288 -171 368 -197 551 -20 145 -19 207 6
374 26 182 63 335 162 676 61 210 80 308 81 416 1 77 -2 95 -18 113 -26 28
-48 26 -81 -6z"/>
<path d="M8994 16005 c-63 -42 -168 -154 -213 -229 -79 -132 -104 -236 -77
-328 22 -76 198 -347 278 -425 62 -62 92 -75 116 -51 22 22 12 52 -63 193 -87
162 -116 232 -122 295 -3 42 4 60 101 240 117 216 141 286 111 320 -26 29 -72
24 -131 -15z"/>
<path d="M14474 14878 c-71 -68 -158 -192 -205 -292 -59 -125 -74 -303 -39
-440 48 -190 162 -301 365 -357 83 -22 88 -22 244 6 127 23 192 84 145 137
-18 19 -26 20 -114 15 -116 -8 -137 0 -260 100 -71 56 -90 79 -117 133 -61
123 -80 280 -47 391 17 56 96 227 136 291 18 30 21 41 12 55 -23 37 -51 27
-120 -39z"/>
<path d="M17357 14813 c-16 -16 -3 -62 47 -172 67 -143 100 -288 101 -431 0
-139 -16 -174 -115 -249 -43 -32 -93 -67 -109 -77 -38 -22 -42 -60 -8 -73 33
-13 97 11 194 71 90 56 145 105 169 151 33 63 32 238 -2 372 -49 191 -229 457
-277 408z"/>
<path d="M16909 14006 c-87 -31 -149 -87 -172 -156 -20 -61 -14 -73 37 -66 23
3 121 8 219 11 188 6 219 12 236 43 17 31 1 61 -43 84 -22 11 -54 31 -69 44
-29 24 -114 54 -151 54 -12 -1 -37 -7 -57 -14z"/>
<path d="M5915 11859 c-79 -32 -117 -66 -113 -100 2 -19 -4 -35 -20 -49 -29
-27 -29 -74 0 -94 47 -33 194 -8 186 31 -2 13 -14 19 -46 21 l-42 3 36 34 c29
28 34 37 25 53 -8 16 -3 22 45 45 45 23 55 31 52 50 -4 30 -57 33 -123 6z"/>
<path d="M6231 11805 c-92 -43 -251 -183 -251 -222 0 -19 28 -27 44 -13 12 9
19 7 35 -9 27 -27 67 -37 86 -21 19 16 19 36 0 44 -8 3 -15 9 -15 14 0 4 47
43 105 86 100 74 127 108 110 135 -11 18 -57 12 -114 -14z"/>
<path d="M6412 11729 c-13 -5 -26 -17 -29 -28 -2 -10 -31 -31 -65 -47 -34 -16
-72 -37 -85 -47 -32 -26 -30 -56 6 -70 l29 -11 -32 -16 c-33 -19 -45 -52 -26
-76 18 -21 102 -18 131 5 19 15 21 21 11 34 -10 12 -8 17 13 31 28 18 34 54
10 61 -8 3 -23 8 -32 11 -13 4 9 19 73 48 93 44 112 63 94 97 -12 21 -57 25
-98 8z"/>
<path d="M6697 11640 c-15 -12 -41 -42 -58 -66 -17 -25 -32 -44 -34 -42 -2 2
2 22 8 46 9 35 9 45 -5 58 -28 28 -54 7 -148 -119 -66 -89 -90 -129 -88 -147
5 -46 34 -34 95 39 l58 70 6 -52 c8 -69 24 -97 54 -97 27 0 64 41 72 82 5 25
10 28 44 28 22 0 39 -1 39 -3 0 -1 -20 -29 -45 -62 -35 -46 -45 -69 -45 -98 0
-46 25 -61 49 -29 9 12 32 43 51 69 58 79 101 123 121 123 21 0 25 -15 8 -25
-6 -4 -24 -25 -40 -47 -55 -77 -32 -174 51 -208 33 -14 84 -6 77 13 -2 7 -13
13 -25 15 -21 3 -72 55 -72 73 0 25 34 70 93 125 78 74 124 97 172 88 31 -5
35 -4 35 15 0 30 -35 61 -67 61 -16 0 -48 -10 -72 -21 -35 -15 -51 -18 -70
-10 -22 9 -200 31 -247 31 -10 0 -9 11 8 45 27 56 15 76 -25 45z m-103 -167
c-8 -57 -23 -91 -24 -54 0 25 20 101 27 101 2 0 1 -21 -3 -47z"/>
<path d="M4300 8805 c-32 -38 11 -134 162 -365 52 -80 139 -215 193 -300 54
-85 198 -308 320 -495 121 -187 301 -466 399 -620 97 -154 280 -424 405 -600
125 -176 339 -484 476 -685 332 -488 381 -557 575 -820 91 -124 221 -302 288
-397 143 -201 228 -309 446 -568 436 -517 854 -979 1235 -1368 156 -158 190
-181 199 -134 4 20 -22 51 -323 382 -358 393 -659 743 -825 960 -47 61 -170
220 -275 355 -105 135 -219 286 -255 335 -35 50 -166 230 -290 400 -308 422
-306 420 -830 1190 -620 912 -1237 1842 -1480 2230 -185 296 -337 496 -386
510 -13 3 -26 -1 -34 -10z"/>
<path d="M4350 5035 c-18 -22 -3 -68 33 -102 29 -27 172 -134 371 -277 124
-89 195 -159 443 -443 174 -198 300 -356 425 -533 219 -309 437 -543 716 -768
248 -200 606 -388 1072 -562 85 -32 209 -79 275 -105 66 -26 179 -67 250 -91
72 -25 204 -81 293 -125 163 -80 305 -132 520 -190 79 -21 171 -58 306 -122
l194 -92 6 -45 c4 -25 13 -151 21 -280 8 -129 24 -307 35 -395 19 -156 90
-853 90 -887 0 -16 15 -18 165 -18 91 0 165 2 165 5 0 3 -22 182 -50 398 -76
601 -118 1011 -140 1362 -22 358 -30 428 -66 633 -27 156 -37 192 -55 192 -13
0 -7 168 6 202 12 31 80 41 225 35 74 -4 158 -12 185 -20 102 -28 259 -91 304
-122 58 -40 114 -120 108 -154 -6 -31 1 -51 19 -51 8 0 13 -8 12 -17 -4 -31
12 -160 47 -373 40 -240 69 -468 125 -970 65 -591 121 -1073 126 -1097 4 -21
10 -23 74 -23 l69 0 -5 32 c-65 453 -113 796 -145 1053 -92 739 -146 1047
-216 1235 -52 137 -55 158 -32 181 29 29 24 84 -15 165 -59 123 -145 180 -406
267 -169 57 -265 77 -374 77 -200 0 -307 -89 -305 -254 0 -94 32 -183 75 -211
32 -21 37 -38 64 -225 22 -153 38 -460 25 -460 -3 0 -14 5 -24 12 -16 9 -27 8
-60 -7 l-41 -18 -127 86 c-71 47 -157 116 -193 152 l-65 67 55 -33 c30 -18
114 -66 185 -107 72 -41 139 -83 151 -94 30 -27 59 -30 79 -8 44 49 -6 99
-286 292 -118 81 -245 174 -283 208 -105 91 -189 145 -450 290 -132 73 -330
187 -440 252 -222 131 -419 234 -691 358 -543 249 -730 338 -825 392 -228 130
-591 389 -745 530 -150 136 -210 185 -390 318 -183 134 -220 158 -425 270 -63
35 -160 93 -215 130 -55 37 -114 74 -132 83 -40 21 -97 22 -113 2z"/>
<path d="M10683 1599 c-12 -7 -29 -27 -38 -46 -14 -28 -14 -40 -4 -70 19 -58
144 -180 259 -253 56 -36 171 -111 257 -168 224 -149 341 -218 488 -287 72
-35 216 -103 320 -153 105 -50 300 -134 435 -187 285 -112 549 -238 742 -353
l138 -82 482 0 483 0 -100 67 c-127 85 -618 383 -794 481 -154 86 -247 130
-456 217 -82 34 -225 94 -317 133 -91 39 -247 96 -345 128 -313 100 -614 219
-883 349 -352 171 -604 255 -667 224z"/>
</g>
</svg>
